<svg version="1.2" xmlns="http://www.w3.org/2000/svg" viewBox="0 0 887 492" width="700" height="388">
	<title>undraw_navigator_a479-svg</title>
	<style>
		.s0 { fill: #ff6584 } 
		.s1 { fill: #3f3d56 } 
		.s2 { opacity: .2;fill: #000000 } 
		.s3 { fill: #cb90be } 
		.s4 { fill: #e6e6e6 } 
		.s5 { fill: #ffffff } 
		.s6 { fill: none } 
		.s7 { fill: #cccccc } 
		.s8 { fill: #f2f2f2 } 
	</style>
	<path id="Layer" class="s0" d="m232.4 154c-28.1 0-50.8-22.7-50.8-50.8c0-28 22.7-50.7 50.8-50.7c28.1 0 50.8 22.7 50.8 50.7c0 28.1-22.7 50.8-50.8 50.8z" />
	<path id="Layer" class="s1" d="m391.6 259.7h-249q-0.2 0-0.3 0q-0.1 0-0.2 0q-0.1 0-0.2-0.1q-0.2 0-0.3 0l117.8-204c0.7-1.3 1.8-2.3 3-3.1c1.3-0.7 2.7-1.1 4.2-1.1c1.4 0 2.9 0.4 4.1 1.1c1.3 0.8 2.3 1.8 3.1 3.1l79 136.9l3.8 6.6z" />
	<path id="Layer" class="s2" d="m391.6 259.7h-85l41.7-60.6l3-4.4l1.5-2.2l3.8 6.6l35 60.6z" />
	<path id="Layer" class="s1" d="m530.2 259.7h-215.3l41.7-60.6l3-4.4l54.4-79c3.5-5.2 12.1-5.5 16.3-1q0.1 0.1 0.2 0.2q0.1 0.2 0.2 0.3q0.1 0.1 0.2 0.2q0.1 0.2 0.2 0.3z" />
	<path id="Layer" class="s3" d="m593.5 226.1c-8.5 0-15.3-6.8-15.3-15.3c0-8.4 6.8-15.3 15.3-15.3c8.4 0 15.3 6.9 15.3 15.3c0 8.5-6.9 15.3-15.3 15.3z" />
	<path id="Layer" class="s1" d="m594.9 256.9h-3.1l1.4-48.4l1.7 48.4z" />
	<path id="Layer" class="s1" d="m593.5 217.7l3.4-4.7l-3.4 5.8l-0.4-0.6l0.4-0.5z" />
	<path id="Layer" class="s1" d="m593.1 222.4l0.5 0.5l-0.4 0.6l-3.4-5.8l3.3 4.7z" />
	<path id="Layer" class="s3" d="m733.8 226.1c-8.5 0-15.3-6.8-15.3-15.3c0-8.4 6.8-15.3 15.3-15.3c8.4 0 15.3 6.9 15.3 15.3c0 8.5-6.9 15.3-15.3 15.3z" />
	<path id="Layer" class="s1" d="m735.3 256.9h-3.2l1.5-48.4l1.7 48.4z" />
	<path id="Layer" class="s1" d="m733.8 217.7l3.4-4.7l-3.4 5.8l-0.4-0.6l0.4-0.5z" />
	<path id="Layer" class="s1" d="m733.5 222.4l0.4 0.5l-0.4 0.6l-3.4-5.8l3.4 4.7z" />
	<path id="Layer" class="s3" d="m637.8 211.4c-12.5 0-22.6-10.1-22.6-22.6c0-12.4 10.1-22.5 22.6-22.5c12.5 0 22.6 10.1 22.6 22.5c0 12.5-10.1 22.6-22.6 22.6z" />
	<path id="Layer" class="s1" d="m640 256.9h-4.7l2.1-71.5l2.6 71.5z" />
	<path id="Layer" class="s1" d="m637.8 199l5-6.9l-5 8.6l-0.6-1l0.6-0.7z" />
	<path id="Layer" class="s1" d="m637.3 205.9l0.6 0.8l-0.5 0.9l-5.1-8.5l5 6.8z" />
	<path id="Layer" class="s3" d="m692.9 211.4c-12.5 0-22.6-10.1-22.6-22.6c0-12.4 10.1-22.5 22.6-22.5c12.5 0 22.6 10.1 22.6 22.5c0 12.5-10.1 22.6-22.6 22.6z" />
	<path id="Layer" class="s1" d="m695 256.9h-4.6l2.1-71.5l2.5 71.5z" />
	<path id="Layer" class="s1" d="m692.9 199l5-6.9l-5 8.6l-0.6-1l0.6-0.7z" />
	<path id="Layer" class="s1" d="m692.4 205.9l0.6 0.8l-0.5 0.9l-5.1-8.5l5 6.8z" />
	<path id="Layer" class="s3" d="m550 211.4c-12.5 0-22.6-10.1-22.6-22.6c0-12.4 10.1-22.5 22.6-22.5c12.5 0 22.6 10.1 22.6 22.5c0 12.5-10.1 22.6-22.6 22.6z" />
	<path id="Layer" class="s1" d="m552.1 256.9h-4.6l2.1-71.5l2.5 71.5z" />
	<path id="Layer" class="s1" d="m550 199l5-6.9l-5 8.6l-0.6-1l0.6-0.7z" />
	<path id="Layer" class="s1" d="m549.5 205.9l0.6 0.8l-0.5 0.9l-5.1-8.5l5 6.8z" />
	<path id="Layer" class="s4" d="m817.2 491.6h-737.2c-18.8 0-36.8-7.4-50-20.7c-13.3-13.3-20.8-31.2-20.8-50c0-18.8 7.5-36.8 20.8-50c13.2-13.3 31.2-20.7 50-20.7h735.6c7.2 0 14.2-2.9 19.3-8c5.1-5.1 7.9-12 7.9-19.2c0-7.3-2.8-14.2-7.9-19.3c-5.1-5.1-12.1-7.9-19.3-7.9h-760.1v-43.6h760.1c18.8 0 36.8 7.5 50 20.7c13.3 13.3 20.8 31.3 20.8 50.1c0 18.7-7.5 36.7-20.8 50c-13.2 13.2-31.2 20.7-50 20.7h-735.6c-7.2 0-14.2 2.9-19.3 8c-5.1 5.1-7.9 12-7.9 19.2c0 7.2 2.8 14.1 7.9 19.2c5.1 5.1 12.1 8 19.3 8h737.2z" />
	<path id="Layer" class="s5" d="m82.7 272.9h33.7v2.2h-33.7z" />
	<path id="Layer" class="s5" d="m178.5 272.9h33.7v2.2h-33.7z" />
	<path id="Layer" class="s5" d="m274.2 272.9h33.8v2.2h-33.8z" />
	<path id="Layer" class="s5" d="m370 272.9h33.7v2.2h-33.7z" />
	<path id="Layer" class="s5" d="m465.8 272.9h33.7v2.2h-33.7z" />
	<path id="Layer" class="s5" d="m561.5 272.9h33.8v2.2h-33.8z" />
	<path id="Layer" class="s5" d="m657.3 272.9h33.7v2.2h-33.7z" />
	<path id="Layer" class="s5" d="m753 272.9h33.8v2.2h-33.8z" />
	<path id="Layer" class="s5" d="m82.7 370.8h33.7v2.2h-33.7z" />
	<path id="Layer" class="s5" d="m178.5 370.8h33.7v2.2h-33.7z" />
	<path id="Layer" class="s5" d="m274.2 370.8h33.8v2.2h-33.8z" />
	<path id="Layer" class="s5" d="m370 370.8h33.7v2.2h-33.7z" />
	<path id="Layer" class="s5" d="m465.8 370.8h33.7v2.2h-33.7z" />
	<path id="Layer" class="s5" d="m561.5 370.8h33.8v2.2h-33.8z" />
	<path id="Layer" class="s5" d="m657.3 370.8h33.7v2.2h-33.7z" />
	<path id="Layer" class="s5" d="m753 370.8h33.8v2.2h-33.8z" />
	<path id="Layer" class="s5" d="m82.7 468.8h33.7v2.2h-33.7z" />
	<path id="Layer" class="s5" d="m178.5 468.8h33.7v2.2h-33.7z" />
	<path id="Layer" class="s5" d="m274.2 468.8h33.8v2.2h-33.8z" />
	<path id="Layer" class="s5" d="m370 468.8h33.7v2.2h-33.7z" />
	<path id="Layer" class="s5" d="m465.8 468.8h33.7v2.2h-33.7z" />
	<path id="Layer" class="s5" d="m561.5 468.8h33.8v2.2h-33.8z" />
	<path id="Layer" class="s5" d="m657.3 468.8h33.7v2.2h-33.7z" />
	<path id="Layer" class="s5" d="m753 468.8h33.8v2.2h-33.8z" />
	<path id="Layer" class="s6" d="m575.2 94.7q-0.7-0.8-1.4-1.6q-0.7-0.8-1.4-1.5q-0.8-0.7-1.6-1.3q-0.8-0.7-1.7-1.3h12.7q-1 0.5-1.9 1.2q-0.9 0.6-1.7 1.3q-0.9 0.7-1.6 1.5q-0.8 0.8-1.4 1.7z" />
	<path id="Layer" class="s6" d="m533.9 89h2.2q-0.7 0.5-1.4 1q-0.4-0.5-0.8-1z" />
	<path id="Layer" class="s4" d="m591.9 86.4q1.3 0 2.6 0.1q1.3 0.2 2.6 0.5q1.3 0.4 2.5 0.9q1.2 0.4 2.4 1.1h-20.2q1.1-0.7 2.3-1.1q1.3-0.5 2.5-0.9q1.3-0.3 2.6-0.5q1.3-0.1 2.7-0.1z" />
	<path id="Layer" class="s4" d="m552.6 83.8q2.2 0 4.4 0.3q2.2 0.3 4.3 1q2.1 0.7 4.1 1.6q1.9 1 3.7 2.3h-33q1.8-1.3 3.8-2.3q1.9-0.9 4-1.6q2.1-0.7 4.3-1q2.2-0.3 4.4-0.3z" />
	<path id="Layer" class="s4" d="m330.2 50.6c0.7-12.7 5.9-24.7 14.7-33.9c8.8-9.2 20.5-15 33.1-16.4c12.7-1.4 25.4 1.8 35.9 9c10.5 7.1 18.2 17.8 21.6 30q1 0 1.9 0c5.8 0 11.5 0.9 17 2.7c5.4 1.8 10.6 4.5 15.2 8c4.6 3.4 8.6 7.6 11.9 12.3c3.3 4.7 5.8 10 7.4 15.5c3.8-1.7 7.9-2.7 12.1-3.1c4.1-0.3 8.3 0 12.3 1c4.1 1 7.9 2.7 11.4 4.9c3.5 2.3 6.6 5.1 9.2 8.4h-167.4c-4.8 0-9.7-1-14.2-2.9c-4.5-1.9-8.5-4.7-11.9-8.2c-3.4-3.5-6.1-7.6-7.8-12.2c-1.8-4.5-2.6-9.4-2.4-14.3q0-0.4 0-0.8z" />
	<path id="Layer" class="s6" d="m619.3 132.2q-0.7-0.8-1.5-1.5q-0.9-0.7-1.8-1.4q-0.9-0.6-1.8-1.1h12.6q-0.8 0.6-1.7 1.2q-0.8 0.7-1.5 1.4q-0.8 0.7-1.5 1.5q-0.7 0.8-1.3 1.6q-0.7-0.9-1.5-1.7z" />
	<path id="Layer" class="s6" d="m661.2 129.2q-0.6-0.5-1.3-1h2.1q-0.4 0.5-0.8 1z" />
	<path id="Layer" class="s4" d="m606.7 125.7q1.3 0.2 2.6 0.5q1.3 0.3 2.5 0.8q1.2 0.5 2.4 1.2h-20.2q1.1-0.7 2.3-1.2q1.3-0.5 2.5-0.8q1.3-0.3 2.6-0.5q1.4-0.2 2.7-0.2q1.3 0 2.6 0.2z" />
	<path id="Layer" class="s4" d="m647.7 123.3q2.2 0.3 4.3 1q2.1 0.6 4.1 1.6q2 1 3.8 2.3h-33.1q1.8-1.3 3.8-2.3q2-1 4.1-1.6q2.1-0.7 4.3-1q2.1-0.4 4.3-0.4q2.2 0 4.4 0.4z" />
	<path id="Layer" class="s4" d="m865.8 90.6c0.1 4.9-0.7 9.7-2.4 14.3c-1.8 4.6-4.4 8.7-7.8 12.2c-3.4 3.5-7.5 6.3-12 8.2c-4.5 1.9-9.3 2.9-14.2 2.9h-167.4c2.6-3.3 5.7-6.1 9.2-8.4c3.5-2.2 7.4-3.9 11.4-4.9c4.1-1 8.2-1.3 12.4-1c4.1 0.4 8.2 1.4 12 3.1c1.6-5.5 4.2-10.8 7.4-15.5c3.3-4.7 7.3-8.9 12-12.4c4.6-3.4 9.7-6.1 15.2-7.9c5.4-1.8 11.1-2.8 16.9-2.8q1 0 2 0.1c3.4-12.3 11-22.9 21.5-30.1c10.5-7.1 23.3-10.3 35.9-8.9c12.6 1.3 24.4 7.1 33.2 16.4c8.7 9.2 13.9 21.2 14.6 33.9q0.1 0.4 0.1 0.8z" />
	<path id="Layer" class="s1" d="m773.6 461.2h-19.4v-3.1h19.4z" />
	<path id="Layer" class="s3" d="m614.7 438.6l0.4-5.4q0.1-1.8 0.5-3.6q0.4-1.8 1-3.5q0.7-1.7 1.6-3.3q0.9-1.6 2-3.1c8.3-10.4 23.7-10.1 23.7-10.1l32.7-26.3l84.4 0.1l6.8 45.1c3.7 1.9 5.3 6.3 6 10.7q0.3 2.2 0.3 4.4q0 2.3-0.3 4.5q-0.3 2.2-0.9 4.3q-0.6 2.2-1.5 4.2l-1.3 3.2h-152.6l-4-1z" />
	<path id="Layer" class="s1" d="m647 476.9c-10.4 0-18.8-8.4-18.8-18.8c0-10.4 8.4-18.9 18.8-18.9c10.4 0 18.8 8.5 18.8 18.9c0 10.4-8.4 18.8-18.8 18.8z" />
	<path id="Layer" class="s7" d="m647 468c-5.5 0-9.9-4.5-9.9-9.9c0-5.5 4.4-9.9 9.9-9.9c5.5 0 9.9 4.4 9.9 9.9c0 5.4-4.4 9.9-9.9 9.9z" />
	<path id="Layer" class="s1" d="m739.9 477c-10.4 0-18.8-8.5-18.8-18.9c0-10.4 8.4-18.8 18.8-18.8c10.5 0 18.9 8.4 18.9 18.8c0 10.4-8.4 18.9-18.9 18.9z" />
	<path id="Layer" class="s7" d="m739.9 468c-5.4 0-9.9-4.4-9.9-9.9c0-5.5 4.5-9.9 9.9-9.9c5.5 0 10 4.4 10 9.9c0 5.5-4.5 9.9-10 9.9z" />
	<path id="Layer" class="s5" d="m656.9 406.5l22-18.2h11.3h5.6h9.8h5.6h6.2v9.3v8.3v0.6h-9.4h-5.5h-45.6z" />
	<path id="Layer" class="s5" d="m724.8 406.5l0.1-18.2h15h5.5h3.5v5.3v8.2v4.8l-24.1-0.1z" />
	<path id="Layer" class="s1" d="m717.4 426h-3.1v-5.9h3.1z" />
	<path id="Layer" class="s1" d="m669.3 411.8v3.1l-5.9-0.1v-3z" />
	<path id="Layer" class="s1" d="m667.1 413.1h-0.3q-1.3 0-2.5-0.5q-1.2-0.5-2.1-1.4q-0.9-0.9-1.4-2.1q-0.5-1.2-0.5-2.4q0-1.3 0.5-2.5q0.5-1.2 1.4-2.1q0.9-0.9 2.1-1.4q1.2-0.5 2.5-0.5h0.3z" />
	<path id="Layer" class="s1" d="m615.1 433.2q0.1-1.8 0.5-3.6q0.4-1.8 1-3.5q0.7-1.7 1.6-3.3q0.9-1.6 2-3.1c2.1 1.1 3.8 2.8 4.7 4.9c1 2.2 1.1 4.6 0.5 6.9c-0.7 2.2-2.1 4.2-4 5.5c-2 1.3-4.3 1.9-6.7 1.6z" />
	<path id="Layer" class="s8" d="m705.6 388.3h5.6l6.2 9.3v8.3l-11.8-17.6z" />
	<path id="Layer" class="s8" d="m739.9 388.3h5.5l3.5 5.3v8.2l-9-13.5z" />
	<path id="Layer" class="s8" d="m690.2 388.3h5.6l12.2 18.2h-5.5l-12.3-18.2z" />
	<path id="Layer" class="s1" d="m50.1 311c-27.7 0-50.1-22.4-50.1-50.1c0-27.7 22.4-50 50.1-50c27.6 0 50 22.3 50 50c0 27.7-22.4 50.1-50 50.1z" />
	<path id="Layer" class="s3" d="m50.3 276l-25.1-25.1c-0.8-0.8-1.3-1.9-1.3-3c0-1.2 0.5-2.3 1.3-3.1c0.8-0.8 1.9-1.3 3.1-1.3c1.1 0 2.3 0.5 3.1 1.3l18.4 18.5l59-67.3c0.8-0.8 1.8-1.4 3-1.4c1.2-0.1 2.3 0.3 3.2 1c0.8 0.8 1.3 1.9 1.4 3c0.1 1.2-0.3 2.3-1 3.2z" />
</svg>