<svg version="1.2" xmlns="http://www.w3.org/2000/svg" viewBox="0 0 530 480" width="300" height="272">
	<title>undraw_traveling_re_weve-svg</title>
	<style>
		.s0 { fill: #3f3d56 } 
		.s1 { fill: #f2f2f2 } 
		.s2 { opacity: .1;fill: #000000 } 
		.s3 { fill: #cccccc } 
		.s4 { fill: #ffffff } 
		.s5 { fill: #fba42a } 
		.s6 { fill: #2f2e41 } 
		.s7 { opacity: .3;fill: #000000 } 
	</style>
	<path id="Layer" class="s0" d="m430.3 192.8c-28.2-21.1-72.3-41-121-54.7c-44.4-12.4-87.7-18.4-122-16.9l-0.2-4c34.7-1.5 78.4 4.5 123.2 17.1c49.2 13.8 93.8 33.9 122.4 55.3z" />
	<path id="Layer" class="s1" d="m427.4 209q0 7-0.7 13.9q-0.8 6.9-2.2 13.8q-1.5 6.8-3.6 13.4q-2.2 6.7-5 13q-1 2.2-2 4.3c-13.2 27-35.2 48.8-62.3 61.8c-27.2 12.9-58 16.3-87.3 9.5c-29.3-6.8-55.5-23.3-74.2-46.8c-18.8-23.6-29-52.8-29-82.9q0-4.6 0.3-9.2q0.2-2.3 0.4-4.6c3.6-33.9 20-65.2 45.9-87.4c25.9-22.1 59.4-33.5 93.4-31.8c34.1 1.8 66.2 16.6 89.7 41.3c23.5 24.8 36.6 57.6 36.6 91.7z" />
	<path id="Layer" class="s2" d="m415.9 263.1q-1 2.2-2 4.3q-5.8 0.6-12.3 0.9q-5.3 0.2-10.9 0.2c-32.7 0-72.1-6-112.3-17.2c-44.8-12.6-85.3-30.2-114.1-49.5q-1.4-1-2.9-2q0.2-2.3 0.4-4.6q2.3 1.7 4.7 3.3c28.5 19.1 68.6 36.5 113 48.9c39.9 11.2 78.8 17.2 111.1 17.2q5.6 0 10.9-0.3q7.6-0.3 14.4-1.2z" />
	<path id="Layer" class="s0" d="m390.7 265.4c-32.7 0-72.1-6.1-112.3-17.3c-44.8-12.6-85.3-30.2-114.1-49.5c-29.4-19.7-43.2-39.2-38.8-54.8c4.4-15.5 26.3-25 61.6-26.6l0.2 4c-16.5 0.8-30 3.2-40 7.3c-10 4.1-16 9.6-18 16.4c-1.9 6.8 0.4 14.7 6.9 23.4c6.4 8.7 16.6 17.8 30.3 27c28.5 19.1 68.6 36.5 113 48.9c39.9 11.2 78.8 17.2 111.2 17.2q5.5 0 10.8-0.3c16.5-0.7 29.9-3.2 40-7.3c10-4 16-9.6 17.9-16.4c3.4-12.2-6.9-28-29.1-44.6l2.4-3.2c11.4 8.5 19.9 16.9 25.1 25c5.7 8.6 7.5 16.7 5.5 23.9c-4.4 15.6-26.3 25-61.7 26.6q-5.3 0.3-10.9 0.3z" />
	<path id="Layer" class="s1" d="m297.8 51.9c-0.9 0-1.6-0.7-1.6-1.6c0-0.8 0.7-1.5 1.6-1.5c0.8 0 1.5 0.7 1.5 1.5c0 0.9-0.7 1.6-1.5 1.6z" />
	<path id="Layer" class="s3" d="m95.4 118.1c-1.5 0-2.6-1.2-2.6-2.7c0-1.4 1.1-2.6 2.6-2.6c1.4 0 2.6 1.2 2.6 2.6c0 1.5-1.2 2.7-2.6 2.7z" />
	<path id="Layer" class="s3" d="m89.8 223.3c-2.9 0-5.2-2.3-5.2-5.2c0-2.8 2.3-5.1 5.2-5.1c2.9 0 5.2 2.3 5.2 5.1c0 2.9-2.3 5.2-5.2 5.2z" />
	<path id="Layer" class="s3" d="m401 62.9c-1.9 0-3.5-1.5-3.5-3.4c0-1.9 1.6-3.5 3.5-3.5c1.9 0 3.5 1.6 3.5 3.5c0 1.9-1.6 3.4-3.5 3.4z" />
	<path id="Layer" class="s3" d="m523.6 208.5c-3.2 0-5.7-2.5-5.7-5.6c0-3.1 2.5-5.6 5.7-5.6c3.1 0 5.6 2.5 5.6 5.6c0 3.1-2.5 5.6-5.6 5.6z" />
	<path id="Layer" class="s3" d="m479.7 115.7c-1.3 0-2.4-1.1-2.4-2.4c0-1.3 1.1-2.4 2.4-2.4c1.3 0 2.4 1.1 2.4 2.4c0 1.3-1.1 2.4-2.4 2.4z" />
	<path id="Layer" class="s3" d="m187.4 86.1c-2.1 0-3.7-1.7-3.7-3.7c0-2.1 1.6-3.8 3.7-3.8c2.1 0 3.8 1.7 3.8 3.8c0 2-1.7 3.7-3.8 3.7z" />
	<path id="Layer" class="s3" d="m471.3 193.9c-1.4 0-2.5-1.1-2.5-2.4c0-1.3 1.1-2.4 2.5-2.4c1.3 0 2.4 1.1 2.4 2.4c0 1.3-1.1 2.4-2.4 2.4z" />
	<path id="Layer" class="s3" d="m3 203.4c-1.7 0-3-1.4-3-3c0-1.7 1.3-3 3-3c1.7 0 3 1.3 3 3c0 1.6-1.3 3-3 3z" />
	<path id="Layer" class="s3" d="m48.5 154.3c-1.8 0-3.2-1.4-3.2-3.2c0-1.8 1.4-3.3 3.2-3.3c1.8 0 3.3 1.5 3.3 3.3c0 1.8-1.5 3.2-3.3 3.2z" />
	<path id="Layer" class="s3" d="m256.8 6.4v3.4h-6.4v6.4h-3.4v-6.4h-6.4v-3.4h6.4v-6.4h3.4v6.4h6.4z" />
	<path id="Layer" class="s3" d="m405.3 352.8v2.2h-4v4h-2.1v-4h-4.1v-2.2h4.1v-4h2.1v4h4z" />
	<path id="Layer" class="s3" d="m498.1 332.3v1.6h-3v3h-1.6v-3h-3v-1.6h3v-3.1h1.6v3.1h3z" />
	<path id="Layer" class="s2" d="m210.3 197.8c-6.2 0-11.2-5-11.2-11.2c0-6.2 5-11.2 11.2-11.2c6.2 0 11.2 5 11.2 11.2c0 6.2-5 11.2-11.2 11.2z" />
	<path id="Layer" class="s2" d="m333.9 310.2c-6.2 0-11.2-5-11.2-11.2c0-6.2 5-11.2 11.2-11.2c6.2 0 11.2 5 11.2 11.2c0 6.2-5 11.2-11.2 11.2z" />
	<path id="Layer" class="s2" d="m296.2 215.1c-6.1 0-11.1-5-11.1-11.2c0-6.2 5-11.2 11.1-11.2c6.2 0 11.2 5 11.2 11.2c0 6.2-5 11.2-11.2 11.2z" />
	<path id="Layer" class="s2" d="m215.9 276.6c-6.2 0-11.2-5-11.2-11.2c0-6.1 5-11.2 11.2-11.2c6.2 0 11.2 5.1 11.2 11.2c0 6.2-5 11.2-11.2 11.2z" />
	<path id="Layer" class="s2" d="m356.3 155.1c-6.2 0-11.2-5-11.2-11.2c0-6.2 5-11.2 11.2-11.2c6.1 0 11.1 5 11.1 11.2c0 6.2-5 11.2-11.1 11.2z" />
	<path id="Layer" class="s2" d="m393.4 230.9c-6.2 0-11.2-5-11.2-11.2c0-6.2 5-11.2 11.2-11.2c6.2 0 11.2 5 11.2 11.2c0 6.2-5 11.2-11.2 11.2z" />
	<path id="Layer" class="s4" d="m356.3 111.9c-8.2 0-14.8-6.6-14.8-14.8c0-8.1 6.6-14.7 14.8-14.7c8.1 0 14.7 6.6 14.7 14.7c0 8.2-6.6 14.8-14.7 14.8z" />
	<path id="Layer" fill-rule="evenodd" class="s5" d="m364.2 77.3c2.6 1.1 4.9 2.6 6.8 4.6c1.9 1.9 3.5 4.2 4.5 6.7c1.1 2.6 1.6 5.3 1.6 8c0 11.5-20.8 49.3-20.8 49.3c0 0-20.9-37.8-20.9-49.3c0-2.7 0.5-5.4 1.6-8c1-2.5 2.6-4.8 4.5-6.7c1.9-2 4.2-3.5 6.8-4.6c2.5-1 5.2-1.5 8-1.5c2.7 0 5.4 0.5 7.9 1.5zm-7.9 29.5c1.2 0 2.5-0.3 3.6-0.8c1.2-0.4 2.3-1.2 3.2-2c0.9-0.9 1.6-2 2.1-3.2c0.5-1.2 0.7-2.4 0.7-3.7c0-3.9-2.3-7.4-6-8.9c-3.6-1.5-7.7-0.7-10.5 2.1c-2.7 2.8-3.6 6.9-2.1 10.5c1.5 3.6 5 6 9 6z" />
	<path id="Layer" class="s4" d="m210.3 151.9c-8.2 0-14.8-6.6-14.8-14.8c0-8.1 6.6-14.7 14.8-14.7c8.1 0 14.7 6.6 14.7 14.7c0 8.2-6.6 14.8-14.7 14.8z" />
	<path id="Layer" fill-rule="evenodd" class="s0" d="m218.2 117.3c2.6 1.1 4.9 2.6 6.8 4.6c1.9 1.9 3.5 4.2 4.5 6.7c1.1 2.6 1.6 5.3 1.6 8c0 11.5-20.8 49.3-20.8 49.3c0 0-20.9-37.8-20.9-49.3c0-2.7 0.5-5.4 1.6-8c1-2.5 2.6-4.8 4.5-6.7c1.9-2 4.2-3.5 6.8-4.6c2.5-1 5.2-1.5 8-1.5c2.7 0 5.4 0.5 7.9 1.5zm-7.9 29.5c1.2 0 2.5-0.3 3.6-0.8c1.2-0.4 2.3-1.2 3.2-2c0.9-0.9 1.6-2 2.1-3.2c0.5-1.2 0.7-2.4 0.7-3.7c0-3.9-2.3-7.4-6-8.9c-3.6-1.5-7.7-0.7-10.5 2.1c-2.7 2.8-3.6 6.9-2.1 10.5c1.5 3.6 5 6 9 6z" />
	<path id="Layer" class="s4" d="m395.3 185.9c-8.2 0-14.8-6.6-14.8-14.8c0-8.1 6.6-14.7 14.8-14.7c8.1 0 14.7 6.6 14.7 14.7c0 8.2-6.6 14.8-14.7 14.8z" />
	<path id="Layer" fill-rule="evenodd" class="s3" d="m403.2 151.3c2.6 1.1 4.9 2.6 6.8 4.6c1.9 1.9 3.5 4.2 4.5 6.7c1.1 2.6 1.6 5.3 1.6 8c0 11.5-20.8 49.3-20.8 49.3c0 0-20.9-37.8-20.9-49.3c0-2.7 0.5-5.4 1.6-8c1-2.5 2.6-4.8 4.5-6.7c1.9-2 4.2-3.5 6.8-4.6c2.5-1 5.2-1.5 8-1.5c2.7 0 5.4 0.5 7.9 1.5zm-7.9 29.5c1.2 0 2.5-0.3 3.6-0.8c1.2-0.4 2.3-1.2 3.2-2c0.9-0.9 1.6-2 2.1-3.2c0.5-1.2 0.7-2.4 0.7-3.7c0-3.9-2.3-7.4-6-8.9c-3.6-1.5-7.7-0.7-10.5 2.1c-2.7 2.8-3.6 6.9-2.1 10.5c1.5 3.6 5 6 9 6z" />
	<path id="Layer" class="s4" d="m145.3 259.9c-8.2 0-14.8-6.6-14.8-14.8c0-8.1 6.6-14.7 14.8-14.7c8.1 0 14.7 6.6 14.7 14.7c0 8.2-6.6 14.8-14.7 14.8z" />
	<path id="Layer" fill-rule="evenodd" class="s5" d="m153.2 225.3c2.6 1.1 4.9 2.6 6.8 4.6c1.9 1.9 3.5 4.2 4.5 6.7c1.1 2.6 1.6 5.3 1.6 8c0 11.5-20.8 49.3-20.8 49.3c0 0-20.9-37.8-20.9-49.3c0-2.7 0.5-5.4 1.6-8c1-2.5 2.6-4.8 4.5-6.7c1.9-2 4.2-3.5 6.8-4.6c2.5-1 5.2-1.5 8-1.5c2.7 0 5.4 0.5 7.9 1.5zm-7.9 29.5c1.2 0 2.5-0.3 3.6-0.8c1.2-0.4 2.3-1.2 3.2-2c0.9-0.9 1.6-2 2.1-3.2c0.5-1.2 0.7-2.4 0.7-3.7c0-3.9-2.3-7.4-6-8.9c-3.6-1.5-7.7-0.7-10.5 2.1c-2.7 2.8-3.6 6.9-2.1 10.5c1.5 3.6 5 6 9 6z" />
	<path id="Layer" class="s6" d="m484.7 363.5c-2.9 2.4-11.4-3-19-12.1c-7.7-9.2-11.5-18.5-8.7-20.9c2.9-2.4 11.4 3 19 12.2c7.7 9.1 11.6 18.4 8.7 20.8z" />
	<path id="Layer" class="s6" d="m425.1 382.6c-23.9 0-43.1-19.2-43.1-43.1c0-23.8 19.2-43 43.1-43c23.8 0 43 19.2 43 43c0 23.9-19.2 43.1-43 43.1z" />
	<path id="Layer" class="s6" d="m430.2 373.3h13.1v23.5h-13.1z" />
	<path id="Layer" class="s6" d="m404 373.3h13.1v23.5h-13.1z" />
	<path id="Layer" class="s6" d="m432.4 401.1c-6 0-10.9-1.8-10.9-4c0-2.3 4.9-4.1 10.9-4.1c6 0 10.9 1.8 10.9 4.1c0 2.2-4.9 4-10.9 4z" />
	<path id="Layer" class="s6" d="m406.2 400.6c-6 0-10.9-1.8-10.9-4.1c0-2.3 4.9-4.1 10.9-4.1c6 0 10.9 1.8 10.9 4.1c0 2.3-4.9 4.1-10.9 4.1z" />
	<path id="Layer" class="s5" d="m411.5 285.4c3.9-15.5 20.9-24.6 38-20.4c17 4.3 27.8 20.3 23.9 35.8c-3.8 15.5-16.6 15.5-33.7 11.3c-17.1-4.3-32-11.2-28.2-26.7z" />
	<path id="Layer" class="s6" d="m396 328.8c-1.6 3.4-11.6 2-22.3-3.1c-10.8-5.1-18.2-12-16.6-15.4c1.6-3.3 11.6-2 22.3 3.2c10.8 5.1 18.2 11.9 16.6 15.3z" />
	<path id="Layer" class="s4" d="m418.6 344.8c-7.9 0-14.3-6.4-14.3-14.3c0-8 6.4-14.4 14.3-14.4c8 0 14.4 6.4 14.4 14.4c0 7.9-6.4 14.3-14.4 14.3z" />
	<path id="Layer" class="s0" d="m412.7 330.1c-2.6 0-4.8-2.1-4.8-4.8c0-2.6 2.2-4.8 4.8-4.8c2.7 0 4.8 2.2 4.8 4.8c0 2.7-2.1 4.8-4.8 4.8z" />
	<path id="Layer" class="s4" d="m427.6 360.4c0.5 2.5-0.1 5-1.5 7.1c-1.5 2.1-3.7 3.5-6.2 4c-2.5 0.5-5-0.1-7.1-1.5c-2.1-1.5-3.6-3.7-4-6.2c-1-5.2 3.1-7.1 8.3-8c5.2-0.9 9.6-0.6 10.5 4.6z" />
	<path id="Layer" fill-rule="evenodd" class="s0" d="m343.3 256.6c1.8 3.2 2.9 6.7 3.4 10.4c0.5 3.7 0.3 7.4-0.6 11c-0.8 3.6-2.4 7-4.5 10l36.7 30.9c0.5 0.5 0.9 1.2 1 1.9c0 0.7-0.2 1.5-0.7 2c-0.5 0.6-1.1 0.9-1.9 1c-0.7 0-1.4-0.2-2-0.7l-36.6-30.9c-8.5 8.3-21 10.9-32 6.5c-11-4.4-18.4-14.8-18.9-26.7c-0.4-11.8 6.1-22.8 16.8-28c10.6-5.2 23.3-3.6 32.4 4c2.8 2.4 5.1 5.3 6.9 8.6zm-5.1 20.8c0.9-2.8 1.2-5.8 1-8.7c-0.2-3-1.1-5.8-2.4-8.4c-1.4-2.6-3.2-5-5.5-6.9c-6.9-5.8-16.7-6.9-24.7-2.7c-8.1 4.1-12.8 12.7-12 21.8c0.7 9 6.9 16.7 15.5 19.4c8.6 2.8 18.1 0 23.9-6.9c1.9-2.2 3.3-4.8 4.2-7.6z" />
	<path id="Layer" class="s7" d="m309.6 291.8c2.7 0.9 5.5 1.3 8.3 1.1c2.7-0.1 5.5-0.7 8-1.8c2.6-1.2 4.9-2.8 6.9-4.7q-0.6 0.7-1.2 1.4c-3.8 4.6-9.3 7.4-15.2 7.9c-5.9 0.5-11.8-1.4-16.3-5.2c-4.6-3.8-7.4-9.3-7.9-15.2c-0.5-6 1.4-11.8 5.2-16.4q0.6-0.7 1.2-1.3c-1.6 2.2-2.8 4.8-3.4 7.5c-0.7 2.7-0.9 5.5-0.5 8.3c0.3 2.7 1.2 5.4 2.5 7.9c1.3 2.4 3.1 4.6 5.2 6.4c2.2 1.8 4.6 3.2 7.2 4.1z" />
	<path id="Layer" class="s6" d="m148 309.4c-4.3 11.2-10.5 19.1-14 17.7c-3.5-1.3-2.9-11.4 1.4-22.5c4.2-11.1 10.5-19 14-17.7c3.4 1.3 2.8 11.4-1.4 22.5z" />
	<path id="Layer" class="s6" d="m101.9 382.6c-23.9 0-43.1-19.2-43.1-43.1c0-23.8 19.2-43 43.1-43c23.8 0 43 19.2 43 43c0 23.9-19.2 43.1-43 43.1z" />
	<path id="Layer" class="s6" d="m82.2 373.3h13.1v23.5h-13.1z" />
	<path id="Layer" class="s6" d="m108.4 373.3h13.1v23.5h-13.1z" />
	<path id="Layer" class="s6" d="m93.1 401.1c-6 0-10.9-1.8-10.9-4c0-2.3 4.9-4.1 10.9-4.1c6.1 0 10.9 1.8 10.9 4.1c0 2.2-4.8 4-10.9 4z" />
	<path id="Layer" class="s6" d="m119.3 400.6c-6 0-10.9-1.8-10.9-4.1c0-2.3 4.9-4.1 10.9-4.1c6 0 10.9 1.8 10.9 4.1c0 2.3-4.9 4.1-10.9 4.1z" />
	<path id="Layer" class="s4" d="m103 343.4c-8.2 0-14.8-6.6-14.8-14.8c0-8.1 6.6-14.7 14.8-14.7c8.1 0 14.7 6.6 14.7 14.7c0 8.2-6.6 14.8-14.7 14.8z" />
	<path id="Layer" class="s0" d="m103 333.5c-2.8 0-5-2.1-5-4.9c0-2.7 2.2-4.9 5-4.9c2.7 0 4.9 2.2 4.9 4.9c0 2.8-2.2 4.9-4.9 4.9z" />
	<path id="Layer" class="s5" d="m60.1 299.5c-3.5-15.6 7.6-31.3 24.8-35.2c17.2-3.8 34 5.7 37.4 21.3c3.5 15.6-7.9 21.3-25.1 25.1c-17.2 3.9-33.6 4.4-37.1-11.2z" />
	<path id="Layer" class="s6" d="m72.8 328.8c-1.6 3.4-11.6 2-22.3-3.1c-10.8-5.1-18.2-12-16.6-15.4c1.6-3.3 11.6-2 22.4 3.2c10.7 5.1 18.1 11.9 16.5 15.3z" />
	<path id="Layer" class="s4" d="m103.6 352.4c12 0 23.3-5.1 23.3-0.9c0 4.2-11.3 16.1-23.3 16.1c-12 0-22.9-8.3-22.9-12.5c0-4.2 10.9-2.7 22.9-2.7z" />
	<path id="Layer" class="s6" d="m241.6 460.6c-23.8 0-43.1-19.2-43.1-43.1c0-23.8 19.3-43 43.1-43c23.8 0 43 19.2 43 43c0 23.9-19.2 43.1-43 43.1z" />
	<path id="Layer" class="s6" d="m222 451.3h13v23.5h-13z" />
	<path id="Layer" class="s6" d="m248.1 451.3h13.1v23.5h-13.1z" />
	<path id="Layer" class="s6" d="m232.9 479.1c-6.1 0-10.9-1.8-10.9-4c0-2.3 4.8-4.1 10.9-4.1c6 0 10.9 1.8 10.9 4.1c0 2.2-4.9 4-10.9 4z" />
	<path id="Layer" class="s6" d="m259 478.6c-6 0-10.9-1.8-10.9-4.1c0-2.3 4.9-4.1 10.9-4.1c6.1 0 10.9 1.8 10.9 4.1c0 2.3-4.8 4.1-10.9 4.1z" />
	<path id="Layer" class="s0" d="m199.8 377.5c-3.5-15.6 7.6-31.3 24.8-35.2c17.2-3.8 34 5.7 37.5 21.3c3.4 15.6-8 21.3-25.2 25.1c-17.1 3.9-33.6 4.4-37.1-11.2z" />
	<path id="Layer" class="s5" d="m250.2 434.1h3.1q0.6 2.5 0.6 5q0 2.5-0.5 5q-0.6 2.5-1.6 4.8q-1 2.3-2.5 4.3c-6.9 9.1-26 6.9-33.2 5c-7.1-1.9-9-29.4-9-29.4c-5.3-6.2-2.8-16.2-1-24.3c1.9-8.2 14.4-6.6 16.6-6.6c2.2 0 10.3-0.3 16.2-0.9c6-0.7 2.9 13.1 2.9 13.1z" />
	<path id="Layer" class="s2" d="m210.2 431c0 0 5.3 2.5 16.2 0.9v4.7l-16.2-1.2z" />
	<path id="Layer" class="s5" d="m249.9 446.7l-3.5-1.9l15.7-29.8c0.6-1.1 0.9-2.3 0.8-3.6c0-1.3-0.3-2.5-1-3.6c-0.6-1.1-1.5-2-2.6-2.6c-1.1-0.7-2.3-1-3.6-1.1l-16.5-0.4l0.1-4l16.5 0.4c2 0.1 3.9 0.6 5.5 1.6c1.7 1 3.1 2.4 4.1 4.1c1 1.7 1.5 3.6 1.5 5.5c0.1 2-0.4 3.9-1.3 5.6z" />
	<path id="Layer" class="s5" d="m211.9 446.7l-15.8-29.8c-0.9-1.7-1.3-3.6-1.3-5.6c0.1-1.9 0.6-3.8 1.6-5.5c1-1.7 2.4-3.1 4-4.1c1.7-1 3.6-1.5 5.5-1.6l16.6-0.4l0.1 4l-16.5 0.4c-1.3 0.1-2.5 0.4-3.6 1.1c-1.1 0.6-2 1.5-2.7 2.6c-0.6 1.1-1 2.3-1 3.6c0 1.3 0.3 2.5 0.9 3.6l15.7 29.8z" />
	<path id="Layer" class="s6" d="m296.8 428.6c-1.9 3.7-12.9 1.6-24.6-4.5c-11.7-6.2-19.6-14.2-17.6-17.9c1.9-3.6 12.9-1.6 24.6 4.6c11.7 6.2 19.5 14.1 17.6 17.8z" />
</svg>